<?xml version="1.0" encoding="UTF-8" standalone="no"?>
<!DOCTYPE svg PUBLIC "-//W3C//DTD SVG 1.1//EN" "http://www.w3.org/Graphics/SVG/1.1/DTD/svg11.dtd">
<svg width="100%" height="100%" viewBox="0 0 786 153" version="1.1" xmlns="http://www.w3.org/2000/svg" xmlns:xlink="http://www.w3.org/1999/xlink" xml:space="preserve" xmlns:serif="http://www.serif.com/" style="fill-rule:evenodd;clip-rule:evenodd;stroke-linejoin:round;stroke-miterlimit:2;">
    <g id="Artboard1" transform="matrix(1,0,0,1,-631.935,-757.446)">
        <rect x="631.935" y="757.446" width="785.895" height="152.601" style="fill:none;"/>
        <g transform="matrix(0.729574,-0.0334049,0.0334049,0.729574,242.614,260.3)">
            <g transform="matrix(148.329,0,0,148.329,1020.51,882.661)">
            </g>
            <text x="934.186px" y="882.661px" style="font-family:'BrushScriptStd', 'Brush Script Std', cursive;font-weight:500;font-size:148.329px;">&amp;</text>
        </g>
        <g transform="matrix(4.16667,0,0,4.16667,241.955,773.142)">
            <g transform="matrix(1.06921,0,0,1.06921,-7.79182,-2.13397)">
                <path d="M106.209,9.654C106.804,9.654 107.189,9.759 107.364,9.934C107.539,10.109 107.644,10.354 107.644,10.739C107.644,10.914 107.609,11.264 107.574,11.824C107.749,12.069 107.819,12.419 107.819,12.839C108.204,12.524 108.764,12.244 109.429,11.964C110.129,11.649 110.794,11.509 111.459,11.509C112.229,11.509 112.789,11.719 113.139,12.139C113.524,12.559 113.839,13.119 114.084,13.819C114.259,14.239 114.364,14.484 114.469,14.519C114.574,14.414 114.784,14.064 115.134,13.504C115.484,12.944 116.044,12.454 116.849,12.069C117.654,11.649 118.634,11.474 119.789,11.509C120.594,11.544 121.119,11.894 121.399,12.489C121.679,13.084 121.819,13.819 121.819,14.764L121.784,16.269C121.749,16.584 121.714,16.864 121.714,17.109C121.679,17.389 121.644,17.669 121.644,17.914C121.644,18.089 121.644,18.194 121.679,18.264C121.504,18.894 121.399,19.804 121.399,20.994L121.434,22.079C121.434,22.289 121.469,22.464 121.574,22.569C121.679,22.674 121.819,22.779 122.064,22.919C122.309,23.059 122.414,23.199 122.414,23.374C122.414,23.724 121.819,23.899 120.629,23.899C120.244,23.899 119.929,23.794 119.649,23.619C119.369,23.409 119.089,23.129 118.774,22.779C118.774,22.674 118.634,22.359 118.389,21.834C118.144,21.274 118.004,20.644 118.004,19.909L118.074,18.229L118.179,17.914C118.214,17.529 118.249,17.144 118.284,16.794C118.319,16.409 118.354,16.164 118.389,16.024C118.529,15.219 118.599,14.519 118.634,13.924C118.669,13.784 118.669,13.644 118.634,13.469C118.599,13.294 118.599,13.084 118.634,12.909C117.969,12.874 117.339,13.154 116.779,13.749C116.219,14.309 115.764,15.009 115.449,15.814C115.134,16.619 114.924,17.354 114.889,18.019C114.854,18.824 114.819,19.419 114.854,19.874L115.064,20.329L115.064,20.749C115.064,21.134 115.029,21.414 114.959,21.589C114.959,21.659 114.994,21.764 115.099,21.869C115.204,21.974 115.239,22.079 115.239,22.184C115.239,22.779 114.994,23.199 114.504,23.444C114.014,23.689 113.454,23.829 112.789,23.829C111.669,23.759 110.934,23.129 110.619,21.904C110.304,20.679 110.199,19.384 110.269,17.984L110.339,16.199C110.374,15.044 110.199,14.204 109.744,13.609C109.429,13.574 109.149,13.679 108.869,13.854C108.589,14.029 108.344,14.204 108.169,14.379C107.994,14.554 107.889,14.659 107.854,14.694C107.819,14.764 107.784,14.834 107.749,14.939C107.714,15.009 107.714,15.079 107.714,15.184L107.679,17.214C107.679,18.859 107.749,19.804 107.854,19.979L107.819,21.344C107.994,21.379 108.169,21.449 108.274,21.624C108.414,21.764 108.484,21.939 108.484,22.184C108.484,22.779 108.134,23.234 107.434,23.479C106.769,23.724 106.069,23.829 105.334,23.794C105.019,23.794 104.634,23.654 104.144,23.374C103.654,23.059 103.234,22.744 102.849,22.359C102.499,21.974 102.324,21.624 102.324,21.344L102.359,20.119C102.254,20.014 102.184,19.839 102.184,19.594L102.219,19.069L102.394,18.754C102.429,18.649 102.394,18.404 102.324,17.984C102.254,17.774 102.219,17.529 102.219,17.284L102.324,14.834C102.324,14.694 102.359,14.449 102.464,14.134C102.569,13.749 102.604,13.469 102.639,13.224C102.674,12.279 103.059,11.474 103.794,10.739C104.529,10.004 105.334,9.654 106.209,9.654Z"/>
            </g>
            <path d="M135.539,13.224C135.539,13.994 135.189,14.764 134.524,15.499C133.859,16.234 133.054,16.899 132.109,17.424C131.164,17.949 130.289,18.229 129.484,18.334L129.449,18.999C129.449,19.594 129.624,20.154 129.939,20.714C130.289,21.239 130.779,21.519 131.374,21.519C132.074,21.519 132.739,21.344 133.334,21.029C133.929,20.679 134.664,20.189 135.539,19.524C136.309,18.859 136.834,18.544 137.114,18.579L137.534,18.754C137.464,19.489 137.044,20.259 136.239,21.064C135.469,21.869 134.489,22.534 133.334,23.059C132.179,23.584 131.059,23.829 129.904,23.829C128.469,23.829 127.349,23.444 126.509,22.709C125.669,21.939 125.249,20.889 125.249,19.524C125.249,17.949 125.459,16.444 125.879,15.009C126.299,13.539 127.034,12.314 128.049,11.334C129.064,10.319 130.429,9.829 132.109,9.829C133.019,9.829 133.824,10.179 134.489,10.879C135.189,11.544 135.539,12.349 135.539,13.224ZM129.484,16.969C129.869,16.969 130.219,16.759 130.604,16.339C130.989,15.919 131.339,15.429 131.584,14.869C131.864,14.309 132.004,13.854 132.004,13.539L132.004,13.049C131.759,12.664 131.584,12.419 131.409,12.244C131.234,12.069 130.989,11.964 130.674,11.964C130.639,11.999 130.569,12.034 130.499,12.104C130.429,12.174 130.394,12.244 130.359,12.279C130.184,12.874 129.974,13.644 129.764,14.624C129.554,15.604 129.449,16.339 129.449,16.829L129.484,16.969Z" style="fill:rgb(77,204,255);"/>
            <path d="M149.924,13.224C149.924,13.994 149.574,14.764 148.909,15.499C148.244,16.234 147.439,16.899 146.494,17.424C145.549,17.949 144.674,18.229 143.869,18.334L143.834,18.999C143.834,19.594 144.009,20.154 144.324,20.714C144.674,21.239 145.164,21.519 145.759,21.519C146.459,21.519 147.124,21.344 147.719,21.029C148.314,20.679 149.049,20.189 149.924,19.524C150.694,18.859 151.219,18.544 151.499,18.579L151.919,18.754C151.849,19.489 151.429,20.259 150.624,21.064C149.854,21.869 148.874,22.534 147.719,23.059C146.564,23.584 145.444,23.829 144.289,23.829C142.854,23.829 141.734,23.444 140.894,22.709C140.054,21.939 139.634,20.889 139.634,19.524C139.634,17.949 139.844,16.444 140.264,15.009C140.684,13.539 141.419,12.314 142.434,11.334C143.449,10.319 144.814,9.829 146.494,9.829C147.404,9.829 148.209,10.179 148.874,10.879C149.574,11.544 149.924,12.349 149.924,13.224ZM143.869,16.969C144.254,16.969 144.604,16.759 144.989,16.339C145.374,15.919 145.724,15.429 145.969,14.869C146.249,14.309 146.389,13.854 146.389,13.539L146.389,13.049C146.144,12.664 145.969,12.419 145.794,12.244C145.619,12.069 145.374,11.964 145.059,11.964C145.024,11.999 144.954,12.034 144.884,12.104C144.814,12.174 144.779,12.244 144.744,12.279C144.569,12.874 144.359,13.644 144.149,14.624C143.939,15.604 143.834,16.339 143.834,16.829L143.869,16.969Z"/>
            <path d="M161.124,7.064C161.124,7.379 161.089,7.694 160.984,7.974C160.739,8.849 160.599,9.689 160.599,10.564L160.599,10.949L162.454,10.949C163.049,10.949 163.644,11.054 164.169,11.299C164.729,11.509 165.009,11.859 165.009,12.349C165.009,12.699 164.939,13.014 164.764,13.329C164.589,13.609 164.379,13.749 164.064,13.749C163.819,13.749 163.574,13.679 163.329,13.539C163.084,13.364 162.979,13.189 162.944,13.014L162.594,13.014C162.384,13.014 161.999,13.084 161.404,13.189C160.844,13.294 160.494,13.399 160.319,13.434C160.144,13.889 160.004,14.449 159.934,15.079C159.829,15.884 159.759,16.654 159.759,17.389C159.759,17.599 159.759,17.844 159.794,18.089C159.829,18.334 159.864,18.579 159.864,18.859C159.864,18.859 159.934,19.104 160.039,19.559C160.214,20.224 160.354,20.784 160.529,21.169C160.704,21.554 160.914,21.764 161.229,21.764C161.404,21.764 161.544,21.694 161.649,21.554C161.754,21.414 161.894,21.204 162.069,20.889C162.314,20.504 162.489,20.189 162.664,20.014C162.839,19.804 163.084,19.699 163.399,19.699L163.784,19.909C163.784,20.504 163.609,21.099 163.294,21.729C162.979,22.359 162.559,22.884 162.034,23.304C161.509,23.724 160.914,23.934 160.319,23.934C158.534,23.934 157.239,23.304 156.364,22.009C155.524,20.714 155.104,19.174 155.104,17.319L155.104,16.619C155.104,16.304 155.139,15.884 155.174,15.359C155.209,14.834 155.244,14.484 155.244,14.239C154.999,14.344 154.789,14.414 154.579,14.449C154.369,14.484 154.089,14.484 153.739,14.484C152.759,14.484 152.269,14.274 152.269,13.854C152.269,13.434 153.004,12.944 154.509,12.384L155.349,11.999C155.419,11.264 155.629,10.389 156.014,9.409C156.399,8.394 156.854,7.554 157.449,6.854C158.044,6.154 158.709,5.804 159.374,5.804C160.004,5.804 160.459,5.909 160.704,6.119C160.984,6.329 161.124,6.644 161.124,7.064Z"/>
        </g>
        <g transform="matrix(4.16667,0,0,4.16667,664.279,770.815)">
            <path d="M95.521,9.795C96.116,9.795 96.501,9.9 96.676,10.075C96.851,10.25 96.956,10.495 96.956,10.88C96.956,11.055 96.921,11.405 96.886,11.965C97.061,12.21 97.131,12.56 97.131,12.98C97.516,12.665 98.076,12.385 98.741,12.105C99.441,11.79 100.106,11.65 100.771,11.65C101.541,11.65 102.101,11.86 102.451,12.28C102.836,12.7 103.151,13.26 103.396,13.96C103.571,14.38 103.676,14.625 103.781,14.66C103.886,14.555 104.096,14.205 104.446,13.645C104.796,13.085 105.356,12.595 106.161,12.21C106.966,11.79 107.946,11.615 109.101,11.65C109.906,11.685 110.431,12.035 110.711,12.63C110.991,13.225 111.131,13.96 111.131,14.905L111.096,16.41C111.061,16.725 111.026,17.005 111.026,17.25C110.991,17.53 110.956,17.81 110.956,18.055C110.956,18.23 110.956,18.335 110.991,18.405C110.816,19.035 110.711,19.945 110.711,21.135L110.746,22.22C110.746,22.43 110.781,22.605 110.886,22.71C110.991,22.815 111.131,22.92 111.376,23.06C111.621,23.2 111.726,23.34 111.726,23.515C111.726,23.865 111.131,24.04 109.941,24.04C109.556,24.04 109.241,23.935 108.961,23.76C108.681,23.55 108.401,23.27 108.086,22.92C108.086,22.815 107.946,22.5 107.701,21.975C107.456,21.415 107.316,20.785 107.316,20.05L107.386,18.37L107.491,18.055C107.526,17.67 107.561,17.285 107.596,16.935C107.631,16.55 107.666,16.305 107.701,16.165C107.841,15.36 107.911,14.66 107.946,14.065C107.981,13.925 107.981,13.785 107.946,13.61C107.911,13.435 107.911,13.225 107.946,13.05C107.281,13.015 106.651,13.295 106.091,13.89C105.531,14.45 105.076,15.15 104.761,15.955C104.446,16.76 104.236,17.495 104.201,18.16C104.166,18.965 104.131,19.56 104.166,20.015L104.376,20.47L104.376,20.89C104.376,21.275 104.341,21.555 104.271,21.73C104.271,21.8 104.306,21.905 104.411,22.01C104.516,22.115 104.551,22.22 104.551,22.325C104.551,22.92 104.306,23.34 103.816,23.585C103.326,23.83 102.766,23.97 102.101,23.97C100.981,23.9 100.246,23.27 99.931,22.045C99.616,20.82 99.511,19.525 99.581,18.125L99.651,16.34C99.686,15.185 99.511,14.345 99.056,13.75C98.741,13.715 98.461,13.82 98.181,13.995C97.901,14.17 97.656,14.345 97.481,14.52C97.306,14.695 97.201,14.8 97.166,14.835C97.131,14.905 97.096,14.975 97.061,15.08C97.026,15.15 97.026,15.22 97.026,15.325L96.991,17.355C96.991,19 97.061,19.945 97.166,20.12L97.131,21.485C97.306,21.52 97.481,21.59 97.586,21.765C97.726,21.905 97.796,22.08 97.796,22.325C97.796,22.92 97.446,23.375 96.746,23.62C96.081,23.865 95.381,23.97 94.646,23.935C94.331,23.935 93.946,23.795 93.456,23.515C92.966,23.2 92.546,22.885 92.161,22.5C91.811,22.115 91.636,21.765 91.636,21.485L91.671,20.26C91.566,20.155 91.496,19.98 91.496,19.735L91.531,19.21L91.706,18.895C91.741,18.79 91.706,18.545 91.636,18.125C91.566,17.915 91.531,17.67 91.531,17.425L91.636,14.975C91.636,14.835 91.671,14.59 91.776,14.275C91.881,13.89 91.916,13.61 91.951,13.365C91.986,12.42 92.371,11.615 93.106,10.88C93.841,10.145 94.646,9.795 95.521,9.795Z"/>
            <path d="M117.291,5.07C117.956,5.07 118.621,5.21 119.321,5.49C120.021,5.77 120.371,6.19 120.371,6.785C120.371,7.87 120.056,8.675 119.461,9.235C118.866,9.76 118.061,10.04 117.046,10.04C116.276,10.04 115.611,9.9 115.051,9.585C114.526,9.27 114.246,8.71 114.246,7.975C114.246,7.03 114.526,6.295 115.086,5.805C115.646,5.315 116.381,5.07 117.291,5.07ZM117.326,11.09C118.621,11.09 119.286,11.545 119.286,12.49L119.286,14.415C119.286,15.395 119.251,16.375 119.181,17.355C119.146,17.67 119.146,18.09 119.111,18.58C119.076,19.07 119.076,19.63 119.076,20.295C119.076,20.61 119.111,20.96 119.146,21.345C119.216,21.73 119.321,22.045 119.426,22.255C119.461,22.36 119.566,22.43 119.741,22.5C119.916,22.535 120.021,22.605 120.021,22.71C120.021,23.165 119.811,23.515 119.391,23.69C118.971,23.865 118.516,23.97 118.026,23.97C116.801,23.97 115.856,23.445 115.156,22.395C114.456,21.31 114.071,20.12 113.966,18.79C113.896,18.685 113.861,18.475 113.861,18.16C113.861,18.09 113.896,17.985 113.966,17.81C114.071,17.635 114.106,17.53 114.106,17.425C114.106,17.285 114.071,17.075 113.966,16.76C113.896,16.445 113.861,16.2 113.861,16.025C113.861,15.71 113.896,15.535 113.966,15.465C114.211,12.56 115.331,11.09 117.326,11.09Z" style="fill:rgb(230,22,115);"/>
            <path d="M123.241,16.83C123.276,16.41 123.311,16.06 123.311,15.745C123.346,14.59 123.451,13.61 123.626,12.805C123.801,12 124.221,11.265 124.886,10.67C125.551,10.04 126.531,9.725 127.826,9.725C128.526,9.725 129.016,9.9 129.261,10.25L129.261,10.53C129.261,10.985 129.156,11.58 128.946,12.245C128.771,12.98 128.666,13.54 128.666,13.925C130.416,12.07 132.061,11.16 133.636,11.16C134.336,11.16 134.896,11.475 135.281,12.105C135.666,12.735 135.876,13.435 135.876,14.24C135.876,14.59 135.841,14.905 135.771,15.185C135.806,15.255 135.806,15.36 135.841,15.5C135.876,15.64 135.911,15.745 135.911,15.85C135.911,15.955 135.876,16.095 135.806,16.235C135.806,16.27 135.841,16.305 135.876,16.375C135.946,16.445 135.981,16.515 135.981,16.55C135.981,17.075 135.946,17.565 135.876,18.055C135.841,18.755 135.806,19.245 135.806,19.525C135.806,19.77 135.876,20.085 136.016,20.505C136.121,20.96 136.191,21.275 136.191,21.415C136.366,21.415 136.506,21.31 136.646,21.135C136.786,20.925 136.926,20.75 137.066,20.645C137.206,20.505 137.381,20.435 137.626,20.435C137.801,20.435 137.941,20.47 138.046,20.505C138.151,20.54 138.186,20.61 138.186,20.785C138.186,21.66 137.906,22.43 137.346,23.06C136.786,23.655 136.051,23.97 135.176,23.97C134.231,23.97 133.531,23.76 133.041,23.375C132.586,22.99 132.271,22.535 132.131,22.01C131.991,21.485 131.886,20.855 131.816,20.12C131.816,19.875 131.781,19.63 131.746,19.35L131.746,18.895C131.746,18.335 131.781,17.53 131.816,16.515L131.851,15.325C131.851,15.115 131.886,14.765 131.991,14.24C132.096,13.82 132.166,13.4 132.166,12.98L132.166,12.91C130.941,13.47 130.066,14.275 129.471,15.36C128.876,16.41 128.596,17.635 128.596,19C128.596,19.35 128.631,19.7 128.701,20.085C128.771,20.435 128.806,20.645 128.841,20.75C129.016,21.415 129.086,21.94 129.086,22.325C129.086,22.85 128.841,23.2 128.316,23.445C127.791,23.655 127.301,23.76 126.776,23.76C124.361,23.76 123.171,22.395 123.171,19.63C123.171,19.245 123.171,18.965 123.206,18.72C123.241,18.475 123.241,18.265 123.241,18.125L123.241,16.83Z"/>
            <path d="M140.496,12.525C140.496,12.14 140.741,11.755 141.196,11.37C141.651,10.985 142.211,10.635 142.806,10.39C143.436,10.145 143.926,10.005 144.311,10.005C145.186,10.005 146.131,10.32 147.146,10.95C147.601,10.635 148.021,10.46 148.406,10.46C148.931,10.46 149.246,10.635 149.386,11.02C149.561,11.405 149.631,11.895 149.631,12.525C149.631,12.77 149.701,13.085 149.841,13.505C149.981,13.89 150.051,14.17 150.051,14.38C150.051,14.8 150.156,15.36 150.331,16.06C150.366,16.165 150.401,16.375 150.471,16.725C150.541,17.04 150.576,17.39 150.576,17.705C150.576,17.915 150.611,18.265 150.646,18.72C150.681,19.14 150.716,19.49 150.716,19.735L150.681,22.78C150.681,23.06 150.646,23.375 150.541,23.76C150.436,24.11 150.366,24.355 150.331,24.53C149.806,26.385 149.001,27.855 147.846,28.94C146.691,30.025 145.221,30.585 143.436,30.585C142.386,30.585 141.616,30.235 141.091,29.535C140.601,28.835 140.356,27.96 140.356,26.875L140.356,25.93C140.496,25.685 140.776,25.58 141.161,25.58C141.301,25.58 141.406,25.65 141.476,25.825C141.581,26 141.686,26.245 141.791,26.595C141.966,27.225 142.176,27.715 142.421,28.1C142.666,28.485 143.086,28.66 143.646,28.66C144.346,28.66 144.941,28.31 145.396,27.61C145.886,26.91 146.236,26.07 146.446,25.125C146.691,24.18 146.796,23.375 146.796,22.64C146.796,22.115 146.761,21.73 146.656,21.485C146.166,22.22 145.641,22.78 145.081,23.165C144.521,23.55 143.856,23.76 143.051,23.76C142.316,23.76 141.686,23.515 141.091,23.025C140.496,22.535 140.041,21.905 139.726,21.135C139.411,20.365 139.236,19.595 139.236,18.86L139.236,15.92C139.236,15.605 139.376,15.115 139.656,14.415C139.971,13.715 140.251,13.155 140.496,12.7L140.496,12.525ZM142.946,16.83C142.946,16.865 142.911,16.935 142.876,17.04C142.841,17.11 142.841,17.18 142.841,17.25C142.841,17.53 142.911,18.055 143.016,18.825C143.156,19.595 143.331,20.295 143.541,20.925C143.751,21.52 143.961,21.835 144.206,21.835L144.276,21.835C145.081,21.03 145.676,20.4 146.026,19.91C146.376,19.42 146.586,18.93 146.691,18.475C146.796,17.985 146.831,17.285 146.831,16.34L146.831,14.555C146.656,14.52 146.481,14.415 146.341,14.31C146.201,14.17 146.166,14.03 146.236,13.855C145.921,13.26 145.606,12.805 145.326,12.49C145.081,12.175 144.696,12 144.206,12C144.171,12 144.136,12.035 144.066,12.14C144.031,12.21 143.961,12.28 143.926,12.315C143.751,12.7 143.541,13.4 143.261,14.45C142.981,15.5 142.841,16.2 142.841,16.515C142.841,16.585 142.841,16.655 142.876,16.725C142.911,16.76 142.946,16.795 142.946,16.83Z"/>
            <path d="M159.326,6.75L159.361,7.135C159.361,7.38 159.326,7.625 159.221,7.8C159.256,7.835 159.256,7.94 159.256,8.08C159.256,8.29 159.221,8.605 159.151,9.06C159.116,9.48 159.081,9.795 159.046,10.005L158.731,11.93C158.556,12.805 158.451,13.54 158.346,14.1C158.276,14.66 158.241,15.255 158.241,15.885C158.241,16.025 158.206,16.165 158.136,16.305C158.101,16.445 158.031,16.55 157.961,16.62C158.066,17.04 158.101,17.285 158.101,17.39C158.136,18.125 158.241,18.825 158.416,19.49C158.521,19.84 158.591,20.295 158.661,20.855C158.766,20.715 158.906,20.47 159.081,20.155C159.256,19.805 159.326,19.56 159.361,19.455L159.361,19.35C159.361,19.105 159.466,18.79 159.711,18.37C159.956,17.95 160.166,17.74 160.376,17.74L160.621,17.95C160.621,18.72 160.516,19.595 160.271,20.54C160.026,21.485 159.676,22.325 159.151,23.025C158.626,23.69 157.996,24.04 157.191,24.04C156.001,24.04 155.126,23.55 154.531,22.605C153.936,21.625 153.516,20.435 153.271,19C153.236,18.895 153.201,18.72 153.096,18.51C153.026,18.3 152.991,18.125 152.991,17.95C152.991,17.88 153.026,17.775 153.096,17.635C153.166,17.46 153.201,17.355 153.201,17.285C153.201,17.145 153.131,16.97 152.991,16.725C152.886,16.48 152.816,16.27 152.816,16.095C152.816,15.92 152.886,15.71 152.991,15.535L152.956,14.73C152.956,13.505 153.096,12.21 153.341,10.845C153.586,9.445 154.041,8.255 154.636,7.24C155.231,6.225 156.036,5.7 157.016,5.7C157.541,5.7 157.996,5.77 158.311,5.945C158.661,6.085 159.011,6.365 159.326,6.75Z"/>
            <path d="M173.711,13.365C173.711,14.135 173.361,14.905 172.696,15.64C172.031,16.375 171.226,17.04 170.281,17.565C169.336,18.09 168.461,18.37 167.656,18.475L167.621,19.14C167.621,19.735 167.796,20.295 168.111,20.855C168.461,21.38 168.951,21.66 169.546,21.66C170.246,21.66 170.911,21.485 171.506,21.17C172.101,20.82 172.836,20.33 173.711,19.665C174.481,19 175.006,18.685 175.286,18.72L175.706,18.895C175.636,19.63 175.216,20.4 174.411,21.205C173.641,22.01 172.661,22.675 171.506,23.2C170.351,23.725 169.231,23.97 168.076,23.97C166.641,23.97 165.521,23.585 164.681,22.85C163.841,22.08 163.421,21.03 163.421,19.665C163.421,18.09 163.631,16.585 164.051,15.15C164.471,13.68 165.206,12.455 166.221,11.475C167.236,10.46 168.601,9.97 170.281,9.97C171.191,9.97 171.996,10.32 172.661,11.02C173.361,11.685 173.711,12.49 173.711,13.365ZM167.656,17.11C168.041,17.11 168.391,16.9 168.776,16.48C169.161,16.06 169.511,15.57 169.756,15.01C170.036,14.45 170.176,13.995 170.176,13.68L170.176,13.19C169.931,12.805 169.756,12.56 169.581,12.385C169.406,12.21 169.161,12.105 168.846,12.105C168.811,12.14 168.741,12.175 168.671,12.245C168.601,12.315 168.566,12.385 168.531,12.42C168.356,13.015 168.146,13.785 167.936,14.765C167.726,15.745 167.621,16.48 167.621,16.97L167.656,17.11Z"/>
        </g>
    </g>
</svg>
